<?xml version="1.0" encoding="UTF-8"?>
<svg id="Layer_1" xmlns="http://www.w3.org/2000/svg" version="1.1" viewBox="0 0 384 360">
  <!-- Generator: Adobe Illustrator 29.2.1, SVG Export Plug-In . SVG Version: 2.1.0 Build 116)  -->
  <defs>
    <style>
      .st0 {
        fill: #142272;
      }

      .st1 {
        isolation: isolate;
      }

      .st2 {
        fill: #525c97;
      }

      .st3 {
        fill: #9c6d8e;
      }
    </style>
  </defs>
  <g id="Group_1">
    <path class="st3" d="M138.2,127h0s-48,0-48,0c-15,0-11.9.3-14.2,1-7.3,1.2-14.3,3.8-20.6,7.7-5,3.3-9.5,7.3-13.3,11.8-3.2,4-5.9,8.4-7.9,13.1-12.2,28.2.7,60.9,28.9,73.1,6.2,3.2,22.9,4.8,35.8,4.8h21s2.4,0,2.4,0v-61.3s-24.2,1-24.2,23.2v16.5h-1.5c-6.7,0-13.4-.4-20-1.5-7.1-2-13.3-6.3-17.8-12.2-8.8-11.5-9.2-27.4-.9-39.4,2.1-3.3,4.9-6.2,8.2-8.4,5.5-4.5,13.3-6.7,23.4-6.7h48.7v117.9c0,23.9,24.2,23.4,24.2,23.4V127h-24.2Z"/>
    <path class="st3" d="M317.9,56.5c-6.2-3.2-22.9-4.8-35.8-4.8h-20.9s-2.4,0-2.4,0v61.3s24.2-1,24.2-23.2v-16.4h1.5c6.7,0,13.4.4,20,1.5,7.1,2,13.3,6.3,17.8,12.2,8.8,11.5,9.2,27.4.9,39.4-2.1,3.3-4.9,6.2-8.2,8.4-5.5,4.5-13.3,6.7-23.4,6.7h-48.7V23.7C242.8-.3,218.5.3,218.5.3v162.9h24.2s48.1,0,48.1,0c15,0,11.9-.3,14.2-1,7.3-1.2,14.3-3.8,20.6-7.7,5-3.3,9.5-7.3,13.3-11.8,3.2-4,5.9-8.4,7.9-13.1,12.2-28.2-.7-60.9-28.9-73.1Z"/>
    <path class="st2" d="M277.7,183.6c-6.2-3.2-22.9-4.8-35.8-4.8h-20.9s-2.4,0-2.4,0v61.3s24.2-1,24.2-23.2v-16.4h1.5c6.7,0,13.4.4,20,1.5,7.1,2,13.3,6.3,17.8,12.2,8.8,11.5,9.2,27.4.9,39.4-2.1,3.3-4.9,6.2-8.2,8.4-5.5,4.5-13.3,6.7-23.4,6.7h-48.7V0h-24.2s-48.1,0-48.1,0c-15,0-11.9.3-14.2,1-7.3,1.2-14.3,3.8-20.6,7.7-5,3.3-9.5,7.3-13.3,11.8-3.2,4-5.9,8.4-7.9,13.1-12.2,28.2.7,60.9,28.9,73.1,6.2,3.2,22.9,4.8,35.8,4.8h20.9s2.4,0,2.4,0v-61.3s-24.2,1-24.2,23.2v16.4h-1.5c-6.7,0-13.4-.4-20-1.5-7.1-2-13.3-6.3-17.8-12.2-8.8-11.5-9.2-27.4-.9-39.4,2.1-3.3,4.9-6.2,8.2-8.4,5.5-4.5,13.3-6.7,23.4-6.7h48.7v268.5h19.7s.2,0,.2,0h4.3s48,0,48,0c15,0,11.9-.3,14.2-1,7.3-1.2,14.3-3.8,20.6-7.7,5-3.3,9.5-7.3,13.3-11.8,3.2-4,5.9-8.4,7.9-13.1,12.2-28.2-.7-60.9-28.9-73.1Z"/>
  </g>
  <g id="Mis_Bazares" class="st1">
    <g class="st1">
      <path class="st0" d="M1.4,310.7h7.2l16.1,29.5,15.7-29.5h7.2v47.8h-7.9v-33l-11.3,20.9c-.6,1.1-1.3,1.9-1.8,2.4-.6.5-1.3.7-2,.7h-2.3l-13.3-24v33H1.4v-47.8Z"/>
      <path class="st0" d="M58.2,319.2c-.9-.9-1.4-2.1-1.4-3.6s.5-2.7,1.4-3.6c.9-.9,2.2-1.4,3.7-1.4s2.8.5,3.8,1.4c1,.9,1.4,2.1,1.4,3.6s-.5,2.7-1.4,3.6c-1,.9-2.2,1.4-3.8,1.4s-2.8-.5-3.7-1.4ZM58,324.4h7.9v34.1h-7.9v-34.1Z"/>
      <path class="st0" d="M77.7,355.9c-2.4-2.1-3.6-4.9-3.6-8.3h7.7c0,1.5.5,2.6,1.4,3.5,1,.9,2.2,1.3,3.8,1.3h6.1c1.5,0,2.8-.3,3.7-.8.9-.5,1.3-1.2,1.3-2.2v-1.5c0-.6-.3-1.2-.8-1.6-.5-.5-1.2-.8-2.2-1l-11.8-2c-2.6-.5-4.7-1.4-6.3-2.9-1.5-1.5-2.3-3.2-2.3-5.2v-2.3c0-2.8,1.1-5.1,3.4-6.7,2.3-1.6,5.4-2.5,9.3-2.5h5.5c3.6,0,6.5,1,8.7,2.9,2.2,2,3.3,4.5,3.3,7.7h-7.7c0-1.2-.4-2.2-1.2-2.9-.8-.7-1.9-1.1-3.2-1.1h-5.4c-1.6,0-2.8.3-3.7.8-.9.5-1.3,1.2-1.3,2.1v1.4c0,.6.3,1.2.8,1.6.5.5,1.2.8,2.1.9l12.2,2.2c2.5.5,4.5,1.5,6,2.9,1.5,1.4,2.3,3.1,2.3,5v2.5c0,2.8-1.2,5.1-3.5,6.7-2.3,1.7-5.4,2.5-9.3,2.5h-6.1c-3.9,0-7.1-1-9.4-3.1Z"/>
      <path class="st0" d="M133.6,356.9c-1.1-1.1-1.6-2.4-1.6-4.1v-42.1h22.6c4.2,0,7.6,1,10.2,3,2.6,2,3.9,4.7,3.9,8v3.5c0,1.6-.4,3.1-1.2,4.5-.8,1.4-1.8,2.6-3.2,3.4h0c2.2.8,4,2,5.4,3.8,1.3,1.7,2,3.7,2,5.9v3.4c0,3.8-1.3,6.8-3.9,9-2.6,2.2-6.1,3.3-10.5,3.3h-19.4c-1.7,0-3.1-.5-4.2-1.6ZM155,331.1c1.7,0,3.1-.5,4.1-1.6,1-1.1,1.6-2.5,1.6-4.2v-2.8c0-1.5-.6-2.6-1.7-3.5-1.2-.9-2.7-1.3-4.6-1.3h-14.4v13.5h15ZM156.6,351.6c2.2,0,4-.5,5.2-1.5,1.3-1,1.9-2.4,1.9-4.2v-3.1c0-1.5-.5-2.8-1.6-3.7-1.1-.9-2.6-1.4-4.4-1.4h-17.7v13.9h16.6Z"/>
      <path class="st0" d="M180.4,356.4c-2.1-1.8-3.2-4.1-3.2-7v-2.5c0-2.9,1.1-5.2,3.3-6.9,2.2-1.7,5.1-2.6,8.7-2.6h4.2c1.3,0,2.6.2,4.1.5,1.5.4,2.8.8,3.9,1.4v-4.2c0-1.4-.5-2.6-1.4-3.4-.9-.9-2.1-1.3-3.6-1.3h-5.7c-1.5,0-2.7.4-3.6,1.1-.9.7-1.4,1.6-1.4,2.8h-7.7c0-3.1,1.2-5.7,3.5-7.6,2.3-1.9,5.4-2.9,9.2-2.9h5.7c3.8,0,6.9,1,9.2,3.1,2.3,2.1,3.5,4.8,3.5,8.2v23.3h-7.3v-4.3c-1.1,1.5-2.5,2.6-4.1,3.5-1.6.9-3.3,1.3-4.9,1.3h-4.2c-3.5,0-6.3-.9-8.4-2.6ZM193.4,352.9c1.8,0,3.5-.5,4.9-1.5,1.5-1,2.5-2.4,3.1-4.1v-1.6c-.8-.6-1.9-1.1-3.3-1.5-1.4-.4-2.9-.6-4.4-.6h-4.3c-1.4,0-2.5.3-3.3,1-.8.7-1.3,1.6-1.3,2.7v1.9c0,1.1.4,2.1,1.3,2.7.9.7,2,1,3.4,1h3.9Z"/>
      <path class="st0" d="M214.4,354.7l19.1-23.6h-18.2v-6.6h29.5v3.8l-19.1,23.6h18.7v6.6h-29.9v-3.8Z"/>
      <path class="st0" d="M252,356.4c-2.1-1.8-3.2-4.1-3.2-7v-2.5c0-2.9,1.1-5.2,3.3-6.9s5.1-2.6,8.7-2.6h4.2c1.3,0,2.6.2,4.1.5,1.5.4,2.8.8,3.9,1.4v-4.2c0-1.4-.5-2.6-1.4-3.4-.9-.9-2.1-1.3-3.6-1.3h-5.7c-1.5,0-2.7.4-3.6,1.1-.9.7-1.4,1.6-1.4,2.8h-7.7c0-3.1,1.2-5.7,3.5-7.6,2.3-1.9,5.4-2.9,9.2-2.9h5.7c3.8,0,6.9,1,9.2,3.1,2.3,2.1,3.5,4.8,3.5,8.2v23.3h-7.3v-4.3c-1.1,1.5-2.5,2.6-4.1,3.5-1.6.9-3.3,1.3-4.9,1.3h-4.2c-3.5,0-6.3-.9-8.4-2.6ZM265.1,352.9c1.8,0,3.5-.5,4.9-1.5,1.5-1,2.5-2.4,3.1-4.1v-1.6c-.8-.6-1.9-1.1-3.3-1.5-1.4-.4-2.9-.6-4.4-.6h-4.3c-1.4,0-2.5.3-3.3,1-.8.7-1.3,1.6-1.3,2.7v1.9c0,1.1.4,2.1,1.3,2.7.9.7,2,1,3.4,1h3.9Z"/>
      <path class="st0" d="M289.2,324.4h7.3v4.6c.9-1.4,2.2-2.6,3.9-3.5,1.7-.9,3.5-1.3,5.3-1.3h4.1v6.8h-4.1c-2.6,0-4.7.8-6.3,2.4-1.6,1.6-2.4,3.7-2.4,6.2v18.8h-7.9v-34.1Z"/>
      <path class="st0" d="M318.9,357.5c-2.1-1-3.8-2.5-4.9-4.4-1.2-1.9-1.7-4.1-1.7-6.6v-9.2c0-2.6.6-5,1.7-7,1.2-2,2.8-3.6,4.9-4.7,2.1-1.1,4.6-1.7,7.3-1.7h5.5c4.1,0,7.5,1.2,10,3.6,2.5,2.4,3.8,5.6,3.8,9.6v6.8h-25.4v2.5c0,1.8.6,3.3,1.7,4.4,1.1,1.1,2.6,1.6,4.5,1.6h5.3c1.8,0,3.3-.4,4.4-1.3,1.1-.9,1.7-2.1,1.7-3.5h7.7c0,3.5-1.3,6.2-3.8,8.3-2.6,2.1-5.9,3.1-10,3.1h-5.2c-2.8,0-5.2-.5-7.3-1.6ZM337.8,338.1v-1c0-2-.5-3.6-1.6-4.9-1.1-1.2-2.5-1.8-4.3-1.8h-5.5c-1.9,0-3.4.6-4.5,1.9-1.2,1.3-1.7,3-1.7,5.1v.6h17.8Z"/>
      <path class="st0" d="M354.4,355.9c-2.4-2.1-3.6-4.9-3.6-8.3h7.7c0,1.5.5,2.6,1.4,3.5s2.2,1.3,3.8,1.3h6.1c1.5,0,2.8-.3,3.7-.8.9-.5,1.3-1.2,1.3-2.2v-1.5c0-.6-.3-1.2-.8-1.6-.5-.5-1.2-.8-2.2-1l-11.8-2c-2.6-.5-4.7-1.4-6.3-2.9-1.5-1.5-2.3-3.2-2.3-5.2v-2.3c0-2.8,1.1-5.1,3.4-6.7,2.3-1.6,5.4-2.5,9.3-2.5h5.5c3.6,0,6.5,1,8.7,2.9,2.2,2,3.3,4.5,3.3,7.7h-7.7c0-1.2-.4-2.2-1.2-2.9-.8-.7-1.9-1.1-3.2-1.1h-5.4c-1.6,0-2.8.3-3.7.8-.9.5-1.3,1.2-1.3,2.1v1.4c0,.6.3,1.2.8,1.6.5.5,1.2.8,2.1.9l12.2,2.2c2.5.5,4.5,1.5,6,2.9,1.5,1.4,2.3,3.1,2.3,5v2.5c0,2.8-1.2,5.1-3.5,6.7-2.3,1.7-5.4,2.5-9.3,2.5h-6.1c-3.9,0-7.1-1-9.4-3.1Z"/>
    </g>
  </g>
</svg>